<?xml version="1.0" encoding="utf-8"?>
<!-- Generator: Adobe Illustrator 24.1.1, SVG Export Plug-In . SVG Version: 6.00 Build 0)  -->
<svg version="1.1" xmlns="http://www.w3.org/2000/svg" xmlns:xlink="http://www.w3.org/1999/xlink" x="0px" y="0px"
	 viewBox="0 0 750 500" style="enable-background:new 0 0 750 500;" xml:space="preserve">
<style type="text/css">
	.st0{display:none;}
	.st1{fill:none;stroke:#4479F8;stroke-width:1.3016;stroke-miterlimit:10;}
	.st2{fill:none;stroke:#FF4C63;stroke-width:8.1788;stroke-linecap:round;stroke-linejoin:round;stroke-miterlimit:10;}
	.st3{fill:none;stroke:#00C3CE;stroke-width:1.6756;stroke-miterlimit:10;}
	.st4{fill:#00C3CE;}
	.st5{fill:none;stroke:#BCC9DD;stroke-width:1.6756;stroke-linecap:round;stroke-linejoin:round;stroke-miterlimit:10;}
	.st6{fill:#331047;}
	.st7{fill:#FFFFFF;}
	.st8{opacity:0.5;}
	.st9{fill:none;stroke:#00C3CE;stroke-width:1.0903;stroke-miterlimit:10;}
	.st10{font-family:'Montserrat-ExtraBoldItalic';}
	.st11{font-size:46.7919px;}
	.st12{fill:#1B0828;}
	.st13{fill:#FFB563;}
	.st14{fill:#E5994C;}
	.st15{fill:#4479F8;}
	.st16{fill:none;stroke:#2761D6;stroke-width:0.9952;stroke-linecap:round;stroke-linejoin:round;stroke-miterlimit:10;}
	.st17{fill:none;stroke:#E5913E;stroke-width:0.9952;stroke-linecap:round;stroke-linejoin:round;stroke-miterlimit:10;}
</style>
<g id="BACKGROUND" class="st0">
</g>
<g id="OBJECTS_1_">
	<g>
		<g>
			<g>
				<g>
					<path class="st1" d="M684.4,135h-57.1c-4.5,0-8.1-3.6-8.1-8.1V69.8c0-4.5,3.6-8.1,8.1-8.1h57.1c4.5,0,8.1,3.6,8.1,8.1v57.1
						C692.4,131.3,688.8,135,684.4,135z"/>
					<path class="st1" d="M684.4,224.7h-57.1c-4.5,0-8.1-3.6-8.1-8.1v-57.1c0-4.5,3.6-8.1,8.1-8.1h57.1c4.5,0,8.1,3.6,8.1,8.1v57.1
						C692.4,221.1,688.8,224.7,684.4,224.7z"/>
					<path class="st1" d="M684.4,314.5h-57.1c-4.5,0-8.1-3.6-8.1-8.1v-57.1c0-4.5,3.6-8.1,8.1-8.1h57.1c4.5,0,8.1,3.6,8.1,8.1v57.1
						C692.4,310.9,688.8,314.5,684.4,314.5z"/>
					<path class="st1" d="M684.4,404.2h-57.1c-4.5,0-8.1-3.6-8.1-8.1v-57.1c0-4.5,3.6-8.1,8.1-8.1h57.1c4.5,0,8.1,3.6,8.1,8.1v57.1
						C692.4,400.6,688.8,404.2,684.4,404.2z"/>
				</g>
				<path class="st2" d="M628.2,91.4c0,0,14.8,6.7,25.9,23.5c17-31.7,41.9-52.3,41.9-52.3"/>
				<path class="st2" d="M628.2,182.7c0,0,14.8,6.7,25.9,23.5c17-31.7,41.9-52.3,41.9-52.3"/>
				<path class="st2" d="M628.2,274c0,0,14.8,6.7,25.9,23.5c17-31.7,41.9-52.3,41.9-52.3"/>
			</g>
			<g>
				<g>
					<line class="st3" x1="526.4" y1="97.8" x2="609.8" y2="97.8"/>
					<path class="st4" d="M613.9,97.8c0,2.3-1.9,4.2-4.2,4.2c-2.3,0-4.2-1.9-4.2-4.2c0-2.3,1.9-4.2,4.2-4.2
						C612,93.5,613.9,95.4,613.9,97.8z"/>
				</g>
				<g>
					<line class="st3" x1="576.6" y1="190.7" x2="609.8" y2="190.7"/>
					<path class="st4" d="M613.9,190.7c0,2.3-1.9,4.2-4.2,4.2c-2.3,0-4.2-1.9-4.2-4.2c0-2.3,1.9-4.2,4.2-4.2
						C612,186.5,613.9,188.4,613.9,190.7z"/>
				</g>
				<g>
					<line class="st3" x1="576.6" y1="280.3" x2="609.8" y2="280.3"/>
					<path class="st4" d="M613.9,280.3c0,2.3-1.9,4.2-4.2,4.2c-2.3,0-4.2-1.9-4.2-4.2c0-2.3,1.9-4.2,4.2-4.2
						C612,276.1,613.9,278,613.9,280.3z"/>
				</g>
				<g>
					<line class="st3" x1="526.4" y1="371.6" x2="609.8" y2="371.6"/>
					<path class="st4" d="M613.9,371.6c0,2.3-1.9,4.2-4.2,4.2c-2.3,0-4.2-1.9-4.2-4.2s1.9-4.2,4.2-4.2
						C612,367.4,613.9,369.3,613.9,371.6z"/>
				</g>
			</g>
		</g>
		<line class="st5" x1="14.6" y1="459" x2="735.4" y2="459"/>
		<g>
			<g>
				<polygon class="st6" points="267,459 256.9,459 283.4,363.9 304.5,363.9 				"/>
				<polygon class="st6" points="528,459 538.1,459 511.6,363.9 490.5,363.9 				"/>
			</g>
			<g>
				<g>
					<circle class="st4" cx="397.5" cy="232.3" r="191.3"/>
					<circle class="st7" cx="397.5" cy="232.3" r="171.6"/>
					<g class="st8">
						<line class="st9" x1="434.3" y1="75" x2="429.5" y2="93"/>
						<line class="st9" x1="444.5" y1="77.8" x2="438.5" y2="95.5"/>
						<line class="st9" x1="454.5" y1="81.3" x2="447.4" y2="98.6"/>
						<line class="st9" x1="464.2" y1="85.4" x2="456" y2="102.2"/>
						<line class="st9" x1="473.7" y1="90.2" x2="464.4" y2="106.4"/>
						<line class="st9" x1="482.8" y1="95.6" x2="472.4" y2="111.1"/>
						<line class="st9" x1="491.5" y1="101.5" x2="480.2" y2="116.3"/>
						<line class="st9" x1="499.8" y1="108" x2="487.6" y2="122.1"/>
						<line class="st9" x1="507.7" y1="115" x2="494.6" y2="128.3"/>
						<line class="st9" x1="515.1" y1="122.6" x2="501.1" y2="134.9"/>
						<line class="st9" x1="522.1" y1="130.6" x2="507.3" y2="142"/>
						<line class="st9" x1="528.4" y1="139" x2="512.9" y2="149.4"/>
						<line class="st9" x1="534.2" y1="147.8" x2="518.1" y2="157.2"/>
						<line class="st9" x1="539.4" y1="157" x2="522.7" y2="165.3"/>
						<line class="st9" x1="544.1" y1="166.5" x2="526.8" y2="173.7"/>
						<line class="st9" x1="548" y1="176.3" x2="530.4" y2="182.4"/>
						<line class="st9" x1="551.4" y1="186.4" x2="533.3" y2="191.3"/>
						<line class="st9" x1="554" y1="196.6" x2="535.7" y2="200.3"/>
						<line class="st9" x1="553.6" y1="270" x2="535.5" y2="265.2"/>
						<line class="st9" x1="550.8" y1="280.1" x2="533.1" y2="274.2"/>
						<line class="st9" x1="547.3" y1="290.1" x2="530" y2="283.1"/>
						<line class="st9" x1="543.2" y1="299.9" x2="526.5" y2="291.7"/>
						<line class="st9" x1="538.5" y1="309.3" x2="522.3" y2="300.1"/>
						<line class="st9" x1="533.2" y1="318.5" x2="517.6" y2="308.2"/>
						<line class="st9" x1="527.3" y1="327.2" x2="512.4" y2="315.9"/>
						<line class="st9" x1="520.8" y1="335.6" x2="506.7" y2="323.4"/>
						<line class="st9" x1="513.8" y1="343.5" x2="500.5" y2="330.4"/>
						<line class="st9" x1="506.3" y1="350.9" x2="493.9" y2="337"/>
						<line class="st9" x1="498.3" y1="357.9" x2="486.9" y2="343.1"/>
						<line class="st9" x1="489.9" y1="364.3" x2="479.4" y2="348.8"/>
						<line class="st9" x1="481.1" y1="370.1" x2="471.7" y2="354"/>
						<line class="st9" x1="471.9" y1="375.4" x2="463.6" y2="358.7"/>
						<line class="st9" x1="462.4" y1="380" x2="455.2" y2="362.8"/>
						<line class="st9" x1="452.6" y1="384" x2="446.5" y2="366.4"/>
						<line class="st9" x1="442.6" y1="387.4" x2="437.7" y2="369.4"/>
						<line class="st9" x1="432.4" y1="390.1" x2="428.6" y2="371.8"/>
						<line class="st9" x1="422" y1="392.1" x2="419.5" y2="373.6"/>
						<line class="st9" x1="369.4" y1="392" x2="372.9" y2="373.7"/>
						<line class="st9" x1="359.1" y1="389.9" x2="363.7" y2="371.9"/>
						<line class="st9" x1="348.8" y1="387.2" x2="354.7" y2="369.5"/>
						<line class="st9" x1="338.8" y1="383.8" x2="345.8" y2="366.5"/>
						<line class="st9" x1="329.1" y1="379.7" x2="337.2" y2="362.9"/>
						<line class="st9" x1="319.6" y1="375" x2="328.8" y2="358.8"/>
						<line class="st9" x1="310.5" y1="369.7" x2="320.7" y2="354.1"/>
						<line class="st9" x1="301.7" y1="363.9" x2="312.9" y2="348.9"/>
						<line class="st9" x1="293.3" y1="357.4" x2="305.5" y2="343.3"/>
						<line class="st9" x1="285.4" y1="350.4" x2="298.4" y2="337.1"/>
						<line class="st9" x1="277.9" y1="343" x2="291.8" y2="330.5"/>
						<line class="st9" x1="270.9" y1="335" x2="285.6" y2="323.5"/>
						<line class="st9" x1="264.5" y1="326.6" x2="279.9" y2="316.1"/>
						<line class="st9" x1="258.6" y1="317.8" x2="274.7" y2="308.3"/>
						<line class="st9" x1="253.3" y1="308.7" x2="270" y2="300.3"/>
						<line class="st9" x1="248.6" y1="299.2" x2="265.8" y2="291.9"/>
						<line class="st9" x1="244.6" y1="289.4" x2="262.2" y2="283.3"/>
						<line class="st9" x1="241.2" y1="279.4" x2="259.2" y2="274.4"/>
						<line class="st9" x1="238.4" y1="269.2" x2="256.7" y2="265.4"/>
						<line class="st9" x1="241" y1="185.7" x2="258.8" y2="191.4"/>
						<line class="st9" x1="244.4" y1="175.6" x2="261.8" y2="182.6"/>
						<line class="st9" x1="248.4" y1="165.9" x2="265.3" y2="173.9"/>
						<line class="st9" x1="253.1" y1="156.4" x2="269.4" y2="165.5"/>
						<line class="st9" x1="258.3" y1="147.2" x2="274" y2="157.4"/>
						<line class="st9" x1="264.2" y1="138.4" x2="279.2" y2="149.6"/>
						<line class="st9" x1="270.6" y1="130" x2="284.8" y2="142.1"/>
						<line class="st9" x1="277.5" y1="122" x2="290.9" y2="135"/>
						<line class="st9" x1="285" y1="114.5" x2="297.5" y2="128.4"/>
						<line class="st9" x1="292.9" y1="107.5" x2="304.5" y2="122.2"/>
						<line class="st9" x1="301.3" y1="101.1" x2="311.9" y2="116.4"/>
						<line class="st9" x1="310" y1="95.2" x2="319.6" y2="111.2"/>
						<line class="st9" x1="319.2" y1="89.8" x2="327.7" y2="106.5"/>
						<line class="st9" x1="328.6" y1="85.1" x2="336" y2="102.3"/>
						<line class="st9" x1="338.4" y1="81" x2="344.6" y2="98.6"/>
						<line class="st9" x1="348.4" y1="77.6" x2="353.5" y2="95.5"/>
						<line class="st9" x1="358.6" y1="74.8" x2="362.5" y2="93.1"/>
						<line class="st9" x1="368.9" y1="72.7" x2="371.6" y2="91.2"/>
					</g>
					<g>
						<g>
							<text transform="matrix(1 0 0 1 383.6328 395.4258)" class="st6 st10 st11">6</text>
						</g>
						<g>
							<text transform="matrix(1 0 0 1 374.7515 100.9932)" class="st6 st10 st11">12</text>
						</g>
						<g>
							<text transform="matrix(1 0 0 1 535.3447 252.3408)" class="st6 st10 st11">3</text>
						</g>
						<g>
							<text transform="matrix(1 0 0 1 234.6465 250.6309)" class="st6 st10 st11">9</text>
						</g>
					</g>
				</g>
				<g>
					<polygon class="st6" points="362.5,133.3 365,132.4 403.7,227.8 407.3,245.5 396.6,249 389,232.7 					"/>
					<path class="st12" d="M392.1,236.5c-3-2.2-3.7-6.3-1.5-9.3c2.2-3,6.3-3.7,9.3-1.5c3,2.2,3.7,6.3,1.5,9.3
						C399.2,238,395.1,238.7,392.1,236.5z"/>
					<path class="st4" d="M393.5,234.5c-1.9-1.3-2.3-4-1-5.8c1.3-1.9,4-2.3,5.8-1c1.9,1.3,2.3,4,1,5.8
						C398,235.4,395.4,235.9,393.5,234.5z"/>
				</g>
				<g>
					<polygon class="st6" points="310.6,350.5 308.5,348.9 388.8,226.7 401,213.5 410.1,220.1 401.3,235.8 					"/>
					<path class="st12" d="M402.6,231.1c0,3.7-3,6.7-6.7,6.7s-6.7-3-6.7-6.7s3-6.7,6.7-6.7S402.6,227.4,402.6,231.1z"/>
					<path class="st4" d="M400.1,231.1c0,2.3-1.9,4.2-4.2,4.2c-2.3,0-4.2-1.9-4.2-4.2c0-2.3,1.9-4.2,4.2-4.2
						C398.2,226.9,400.1,228.8,400.1,231.1z"/>
				</g>
			</g>
		</g>
		<g>
			<polyline class="st13" points="180.9,84.2 158.2,126.6 178.6,131.3 185.1,104.6 			"/>
			<polygon class="st14" points="165.8,112.4 170.2,122.6 180.1,124.9 185.1,104.6 181.1,85 180.4,85.1 			"/>
			<path class="st13" d="M222.5,67.5c0,0,0,15.9-5.8,25.4c-5.8,9.6-20.9,29.7-20.9,29.7l-16.6-4.8c0,0-1-34-0.5-38.8
				c0.5-4.8,12.8-20.6,12.8-20.6S219.5,58.9,222.5,67.5z"/>
			<path class="st6" d="M210.9,91.8c-0.5,1.3-1.7,2-2.6,1.6c-0.9-0.4-1.2-1.7-0.7-2.9c0.5-1.3,1.7-2,2.6-1.6
				C211.1,89.3,211.4,90.6,210.9,91.8z"/>
			<path class="st15" d="M168.6,439c0,0,9.5,8.8,26.2,11.6c16.7,2.8,22.6,8.5,22.6,8.5h-59.2l2.2-20.1"/>
			<path class="st15" d="M96.4,442.2c0,0-23.1,7.4-41.4,16.8c25.8,0,53.8,0,53.8,0V439"/>
			<path class="st6" d="M124.4,253.8c0,0-13.8,121.4-19,150.5s-9,38-9,38l13.1,6.7c0,0,5-3.5,2.8-7.8s1.8-4.3,1.1-11.4
				c-0.7-7.1,3.5,1.4,3.2-16.3s39-149.4,39-149.4s8.9,132,8.2,143.4c-0.7,11.4-10.3,22.4-4.6,23.1c-4.3,5.3-4.6,18.5-1.1,18.5
				c7.8-7.5,13.1-12.4,13.1-12.4s8.9-171.8,13.5-189.9c-16.7-9.2-38.3-2.8-38.3-2.8"/>
			<path class="st15" d="M206.9,135.4c0,0-57.5-18.8-93.1-4.1c-16.8,51.1-3.3,100.1-3.3,100.1l41.8-39.6l-6.2-14.7l-21.7,19.4
				c0,0,8.2-7.9-2-3c10.9-19.7,14.1-46,14.1-46l-15.5,9.2c0,0-3.9,87.8-1.3,98c16.1,7.9,65.4,1.3,65.4,1.3s22.7-96.6,15.4-110.5
				c-12.4,9.9-8.5,19.7-8.5,19.7s8.9,55.2,18.7,62.2c13.5-10.2,21-29.6,21-29.6l-6.6-5.7l-12.8-1.9
				C212.5,190.3,212.5,144,206.9,135.4z"/>
			<g>
				<path class="st16" d="M117.8,224.6l34.5-32.7l-6.2-14.7l-21.7,19.4c0,0,8.2-7.9-2-3c10.9-19.7,14.1-46,14.1-46"/>
				<path class="st16" d="M200.9,171.8c1.4-12.4,1.6-22.3-0.4-26.1"/>
			</g>
			<path class="st6" d="M180.9,76.6l7.8-0.8l5.9-14.3c0,0,15.8,4.1,27.9,9.9c10.8-1.8,13.5-6.9,7.1-13c-6.5-6-10.6-4.2-5,0
				c-9.7-3.4-38-3-38-3L180.9,76.6z"/>
			<path class="st13" d="M184,78.4c0,0,0.9-8.6-5-8.6c-6,0-5.5,21.9,3.6,16.1"/>
			<polygon class="st6" points="241.3,156.3 191.6,150.4 171.7,211.7 218.4,220.3 			"/>
			<path class="st13" d="M147.5,180.7c0,0,10.1-15.8,13.6-16c3.5-0.2,11.1,1.5,17.4,6.9c6.3,5.4,0.7,4.4-3.1,2.5
				c-3.8-1.9-8.3-2.9-8.3-2.9s2.3,6.9,2.5,10.2c0.2,3.3-8.8,3.4-10.2,4c-1.5,0.6-1.2-2.5-1.2-2.5s-2.4,7-8.2,3.8L147.5,180.7z"/>
			<path class="st13" d="M230.3,201.4c0,0,4.7-11,2.8-14c-1.9-3-1.9-3-1.9-3l-1.4,3.8c0,0-9.3-6.6-16.4-5.5
				c-7.1,1.1-1.9,8.5,0.9,12.1C217.1,198.4,228.6,206.2,230.3,201.4z"/>
			<path class="st17" d="M207,85.8c0,0,1.5,6.3-1.3,13.7c-2.7,7.4-5.2,10.3-5.2,10.3s-4.9-5.4-7.2-9.6c-2.3-4.2,1.6-8.3,4.1-4.9"/>
			<path class="st17" d="M195.2,106.8c0,0-3.9,4.4-5.8-2.4"/>
			<path class="st17" d="M179.1,75.1c0,0,2.7-2.2,2.6,6.7c-4.6-0.6-0.8,2-0.8,2"/>
			<path class="st6" d="M202.4,87.7c-0.5,1.3-1.7,2-2.6,1.6c-0.9-0.4-1.2-1.7-0.7-2.9c0.5-1.3,1.7-2,2.6-1.6
				C202.6,85.1,202.9,86.4,202.4,87.7z"/>
			<path class="st6" d="M202.8,82.1c0,0,3.4-0.5,3.9-1.7c-6.5-3.6-9.9-5.1-13.5-2.4C196.6,78.7,202.8,82.1,202.8,82.1z"/>
			<path class="st6" d="M208.2,84.6c0,0,2.8-0.4,3-2.5c4.1,2.9,6.8,4.7,5.7,8.3C213.9,87.6,208.2,84.6,208.2,84.6z"/>
			<line class="st17" x1="226" y1="190.3" x2="212.4" y2="183"/>
			<line class="st17" x1="224.4" y1="193.9" x2="209.9" y2="186.1"/>
			<line class="st17" x1="223.3" y1="197.6" x2="212" y2="191.5"/>
			<line class="st17" x1="166.1" y1="168.7" x2="167.4" y2="171.8"/>
			<line class="st17" x1="165" y1="171.8" x2="169" y2="177.3"/>
			<path class="st17" d="M164.5,176.1c0,0,5.6,4.2,5.2,5.3"/>
			<path class="st17" d="M158.2,182.8c0,0,1.9-1.5,3.4-1.8"/>
			<path class="st17" d="M161.6,178.7c0,0-1,2.7,2.1,3.2"/>
		</g>
	</g>
</g>
</svg>
